<?xml version="1.0" encoding="UTF-8"?>
<svg width="1250px" height="1250px" viewBox="0 0 1250 1250" version="1.1" xmlns="http://www.w3.org/2000/svg" xmlns:xlink="http://www.w3.org/1999/xlink" xmlns:sketch="http://www.bohemiancoding.com/sketch/ns">
    <!-- Generator: Sketch 3.5 (25232) - http://www.bohemiancoding.com/sketch -->
    <title>light-2-blue-bg</title>
    <desc>Created with Sketch.</desc>
    <defs></defs>
    <g id="Page-1" stroke="none" stroke-width="1" fill="none" fill-rule="evenodd" sketch:type="MSPage">
        <g id="light-2-blue-bg" sketch:type="MSLayerGroup">
            <rect id="Rectangle-10" fill="#39579A" sketch:type="MSShapeGroup" x="0" y="0" width="1250" height="1250" rx="32"></rect>
            <g id="Group" transform="translate(125.000000, 187.000000)" sketch:type="MSShapeGroup">
                <path d="M500,679 C638.071187,679 750,567.071187 750,429 C750,290.928813 638.071187,179 500,179 C361.928813,179 250,290.928813 250,429 C250,567.071187 361.928813,679 500,679 Z M500,579 C582.842712,579 650,511.842712 650,429 C650,346.157288 582.842712,279 500,279 C417.157288,279 350,346.157288 350,429 C350,511.842712 417.157288,579 500,579 Z M404.45085,429 L484.105652,507.454525 L389,476.552826 L404.45085,429 Z M595.105652,429 L515.45085,507.454525 L610.556501,476.552826 L595.105652,429 Z" id="Oval-3" fill="#68EFAD"></path>
                <path d="M803.812207,256.517879 L588.388348,471.941738 L588.32233,471.875721 L500.066017,560.132034 L394,454.066017 L196.620114,256.685674 L193.705672,259.600116 L193.671589,259.566034 C165.844361,309.769062 150,367.534207 150,429 C150,536.623854 198.576344,632.902096 275,697.105693 L275,875.63543 C111.871061,793.294644 5.68434189e-14,624.211765 5.68434189e-14,429 C5.68434189e-14,325.92205 31.1915765,230.129283 84.6509923,150.545437 L43,108.894444 L151.894444,2.1032065e-12 L301.894444,150 L302.066475,150 L500.132263,348.065789 L698.198052,150 L698.705672,150 L848.705672,1.79056769e-12 L957.600116,108.894444 L915.590013,150.904547 C968.902156,230.41738 1000,326.077045 1000,429 C1000,624.211765 888.128939,793.294644 725.000046,875.635406 L725,697.105693 C801.423656,632.902096 850,536.623854 850,429 C850,367.043677 833.901737,308.847305 805.659883,258.365554 L803.812207,256.517879 Z" id="Oval-1" fill="#FFFFFF"></path>
            </g>
        </g>
    </g>
</svg>